Coordinates
version=1
nRows=13
nColumns=36
inDegrees=yes

Units are S.I. units (second, meters, Newtons, ...)
If the header above contains a line with 'inDegrees', this indicates whether rotational values are in degrees (yes) or radians (no).

endheader
time	pelvis_tilt	pelvis_list	pelvis_rotation	pelvis_tx	pelvis_ty	pelvis_tz	hip_flexion_r	hip_adduction_r	hip_rotation_r	knee_angle_r	knee_angle_r_beta	ankle_angle_r	subtalar_angle_r	mtp_angle_r	hip_flexion_l	hip_adduction_l	hip_rotation_l	knee_angle_l	knee_angle_l_beta	ankle_angle_l	subtalar_angle_l	mtp_angle_l	lumbar_extension	lumbar_bending	lumbar_rotation	arm_flex_r	arm_add_r	arm_rot_r	elbow_flex_r	pro_sup_r	arm_flex_l	arm_add_l	arm_rot_l	elbow_flex_l	pro_sup_l
      0.00000000	     -4.29629973	     -0.87640838	     -0.97180643	     -0.10889222	      0.95593491	     -0.53425346	     -0.48802854	     -0.01725229	      0.10887441	      1.72294990	      0.03007115	      8.69598351	     -2.99234956	     -5.45820384	      5.19052649	    -11.13789224	     -9.39822910	     10.76330416	      0.18785510	      4.21061558	     -1.17498903	     -5.45820384	     -1.09650133	      2.75789789	      2.26952266	      1.52826492	     -4.77934038	     -3.90359471	     29.71584675	    109.39778306	      5.06141154	     -2.01749473	      4.92544191	     23.91699212	    106.21980389
      0.01000000	     -4.27570302	     -0.89069071	     -0.94493245	     -0.10890853	      0.95596585	     -0.53428537	     -0.52158270	      0.00209411	      0.02214689	      1.68922731	      0.02948258	      8.62109363	     -2.96027594	     -5.64071257	      5.15965229	    -11.14691716	     -9.32782746	     10.72347891	      0.18716001	      4.20032391	     -1.16725655	     -5.64071257	     -1.11314320	      2.76567405	      2.24777085	      1.51705756	     -4.83480177	     -3.51308211	     29.82346626	    107.89921802	      5.07164505	     -2.09285944	      5.45776575	     24.03024470	    104.22051483
      0.02000000	     -4.27711347	     -0.91267910	     -0.99708395	     -0.10896339	      0.95594107	     -0.53423512	     -0.50079992	      0.02925884	      0.08503716	      1.72403075	      0.03009001	      8.68244020	     -2.97648270	     -5.88858270	      5.16972449	    -11.19104182	     -9.48344314	     10.76702339	      0.18792001	      4.27316299	     -1.02543210	     -5.88858270	     -1.12352734	      2.81173879	      2.36953586	      1.44092254	     -4.66336196	     -4.89755796	     29.87682487	    110.53563472	      5.07732980	     -1.98294120	      4.67198349	     23.97343982	    106.31381494
      0.03000000	     -4.26451473	     -0.93735699	     -1.05843592	     -0.10899384	      0.95594522	     -0.53415518	     -0.52459967	      0.05904945	      0.26801432	      1.70027060	      0.02967532	      8.62719587	     -3.10828912	     -6.44083221	      5.15428639	    -11.24120117	     -9.66329828	     10.79788392	      0.18845863	      4.35040159	     -0.84091767	     -6.44083221	     -1.13476827	      2.84190417	      2.48276853	      1.40384908	     -4.66592636	     -5.00848293	     29.96191394	    110.13905297	      5.10177274	     -2.00422163	      4.93732772	     23.99611001	    105.75458340
      0.04000000	     -4.25827287	     -1.02694639	     -0.91874500	     -0.10904026	      0.95589036	     -0.53442658	     -0.49295473	      0.13765084	     -0.23465838	      1.80149759	      0.03144206	      9.32509756	     -2.18109616	     -6.56622989	      5.19775759	    -11.30701151	     -9.23889399	     10.83275271	      0.18906720	      4.51417449	     -0.98468715	     -6.56622989	     -1.12441630	      2.96928689	      2.29771599	      1.43507173	     -4.61842301	     -5.01408637	     30.13477236	    106.84895027	      5.03071896	     -1.88436235	      4.58337286	     24.41993886	    102.82029694
      0.05000000	     -4.25206760	     -0.94384584	     -1.03532049	     -0.10908882	      0.95595704	     -0.53430055	     -0.49917798	      0.05281994	      0.11295616	      1.75739481	      0.03067233	      8.74262410	     -2.88632701	     -6.87866122	      5.14256427	    -11.22437872	     -9.55911772	     10.77302262	      0.18802472	      4.28293436	     -1.01546523	     -6.87866122	     -1.13669847	      2.86540422	      2.35579092	      1.51499555	     -4.73952059	     -4.66393782	     29.80654547	    110.37585089	      5.03431446	     -1.98049086	      4.50894122	     24.08093003	    106.11868585
      0.06000000	     -4.24930408	     -0.96896430	     -1.03504038	     -0.10914274	      0.95596103	     -0.53433082	     -0.49769298	      0.08369260	      0.11131172	      1.74927728	      0.03053065	      8.65507555	     -2.98775416	     -7.04376581	      5.15269850	    -11.25583858	     -9.54586887	     10.79575681	      0.18842150	      4.34095278	     -1.01277274	     -7.04376581	     -1.13733387	      2.90405599	      2.42514467	      1.46897850	     -4.75055092	     -4.83524783	     29.89348264	    110.20910075	      5.09903278	     -1.99640257	      4.81435515	     24.00870290	    105.85952071
      0.07000000	     -4.25360441	     -0.98573672	     -1.01028626	     -0.10920806	      0.95600050	     -0.53442537	     -0.47022995	      0.09899953	     -0.01315397	      1.77830135	      0.03103721	      8.66553688	     -2.91551711	     -7.17903886	      5.16753150	    -11.26196591	     -9.46562329	     10.79515468	      0.18841099	      4.30229323	     -1.06945304	     -7.17903886	     -1.12289566	      2.94121347	      2.38827009	      1.47935042	     -4.82715282	     -4.59494277	     29.88145541	    110.34089458	      5.11239650	     -1.99789413	      4.82240958	     23.95992841	    106.08046908
      0.08000000	     -4.25584966	     -0.99412240	     -1.02012456	     -0.10930481	      0.95603200	     -0.53446778	     -0.44327642	      0.10476996	     -0.00573168	      1.80476761	      0.03149914	      8.64179567	     -2.92657185	     -7.25592548	      5.17973874	    -11.26767681	     -9.46618514	     10.80562999	      0.18859382	      4.30365151	     -1.07730573	     -7.25592548	     -1.12325703	      2.97561937	      2.35313911	      1.50248246	     -4.93516765	     -4.23294045	     29.94377317	    110.20444567	      5.10857666	     -1.99392123	      4.75247504	     23.96288051	    106.03139052
      0.09000000	     -4.26792629	     -0.99364041	     -1.02425932	     -0.10937233	      0.95603303	     -0.53453734	     -0.39816884	      0.10120517	     -0.08201478	      1.84660478	      0.03222933	      8.60532294	     -2.89236473	     -7.27006948	      5.19172919	    -11.25276157	     -9.43146839	     10.80098900	      0.18851282	      4.27249643	     -1.22172337	     -7.27006948	     -1.10690035	      3.00818316	      2.34883089	      1.47713817	     -5.09627155	     -3.72234738	     30.04582306	    110.11785970	      5.13480287	     -2.04208770	      4.97009983	     23.92056694	    106.13426907
      0.10000000	     -4.18392683	     -0.97454595	     -1.00434423	     -0.10941475	      0.95614643	     -0.53467902	     -0.47052177	      0.05505807	     -0.23684986	      1.89720292	      0.03311244	      8.88641604	     -2.41416162	     -7.30049382	      5.09938087	    -11.21461156	     -9.42051335	     10.77264935	      0.18801820	      4.28453635	     -1.18961462	     -7.30049382	     -1.21902119	      3.00914606	      2.31680871	      1.51684852	     -5.13140010	     -3.41646204	     30.24741297	    107.34660946	      5.15374026	     -2.00111031	      4.89493040	     24.21501792	    103.50620748
      0.11000000	     -4.28224268	     -1.13490892	     -0.97820602	     -0.10955467	      0.95595859	     -0.53467782	     -0.24927637	      0.23769899	     -0.57612728	      2.11282929	      0.03687583	      9.49446397	     -1.80123084	     -7.31988336	      5.24998557	    -11.39836309	     -9.19898073	     10.84448077	      0.18927190	      4.47164944	     -1.23228840	     -7.31988336	     -1.11581652	      3.20737765	      2.32454580	      1.50078120	     -5.21733983	     -3.28250006	     30.53845842	    104.92781661	      5.08135381	     -1.96791019	      4.81485116	     24.67251565	    101.33716237
      0.12000000	     -4.22208880	     -1.06704961	     -1.06130021	     -0.10971635	      0.95612844	     -0.53451577	     -0.38762824	      0.19515228	      0.11833696	      1.91023126	      0.03333982	      8.51960719	     -3.16541803	     -7.36950087	      5.19638320	    -11.35106763	     -9.48958337	     10.88119455	      0.18991267	      4.32179604	     -1.12692215	     -7.36950087	     -1.19843965	      3.13807402	      2.43307681	      1.61998815	     -5.44195930	     -2.71290774	     30.11887661	    110.39975354	      5.32725047	     -2.21116901	      5.47730464	     23.82045679	    106.22282225
